<svg width="512" height="512" viewBox="0 0 512 512" fill="none" xmlns="http://www.w3.org/2000/svg">
<path d="M323.68 467.28C323.706 469.149 323.082 470.968 321.914 472.427C320.747 473.887 319.109 474.895 317.28 475.28C302.201 478.409 286.842 479.991 271.442 480.001C-25.6459 467.748 -25.7232 44.2922 271.44 32C303.053 31.9569 334.31 38.6666 363.12 51.68C364.832 52.4158 366.224 53.7394 367.046 55.4119C367.867 57.0843 368.064 58.9954 367.6 60.8C365.478 69.4821 355.632 66.2258 349.122 66.64C107.169 73.2807 78.86 414.19 316.96 459.52C318.803 459.841 320.478 460.789 321.703 462.203C322.927 463.617 323.626 465.41 323.68 467.28ZM464.08 190.24C428.571 93.904 300.496 66.3113 228.72 139.842C201.864 166.738 186.78 203.192 186.78 241.201C186.78 279.209 201.864 315.664 228.72 342.56C235.7 349.528 243.365 355.773 251.6 361.2C253.163 362.214 255.031 362.652 256.882 362.436C258.733 362.221 260.451 361.367 261.74 360.021C263.029 358.676 263.808 356.922 263.943 355.064C264.078 353.205 263.561 351.358 262.48 349.84C244.79 325.156 237.033 294.721 240.748 264.58C244.464 234.44 259.381 206.801 282.537 187.152C305.692 167.503 335.391 157.284 365.734 158.523C396.077 159.762 424.844 172.37 446.32 193.841C449.96 197.991 454.793 203.672 460.721 199.919C462.313 198.943 463.517 197.444 464.13 195.68C464.742 193.915 464.724 191.993 464.08 190.24ZM359.84 186.32C336.755 186.341 314.62 195.515 298.288 211.832C281.957 228.148 272.762 250.275 272.72 273.36C273.546 281.423 271.367 296.961 282.559 297.601C284.433 297.559 286.233 296.865 287.65 295.638C289.066 294.411 290.011 292.728 290.32 290.88C306.181 207.794 426.045 220.893 424 305.361C423.957 306.442 424.132 307.52 424.514 308.532C424.896 309.545 425.477 310.47 426.223 311.253C426.969 312.036 427.865 312.662 428.857 313.093C429.85 313.523 430.918 313.75 432 313.76C433.543 313.776 435.056 313.336 436.351 312.497C437.646 311.657 438.664 310.455 439.28 309.04C444.372 297.836 446.992 285.667 446.96 273.36C446.918 250.275 437.723 228.148 421.392 211.832C405.06 195.515 382.925 186.341 359.84 186.32Z" fill="url(#paint0_linear_19_2)"/>
<defs>
<linearGradient id="paint0_linear_19_2" x1="48.6" y1="256" x2="464.592" y2="256" gradientUnits="userSpaceOnUse">
<stop stop-color="#00C0FF"/>
<stop offset="1" stop-color="#5558FF"/>
</linearGradient>
</defs>
</svg>
